<?xml version="1.0" encoding="UTF-8" standalone="no"?>
<svg
   xmlns:osb="http://www.openswatchbook.org/uri/2009/osb"
   xmlns:dc="http://purl.org/dc/elements/1.1/"
   xmlns:cc="http://creativecommons.org/ns#"
   xmlns:rdf="http://www.w3.org/1999/02/22-rdf-syntax-ns#"
   xmlns:svg="http://www.w3.org/2000/svg"
   xmlns="http://www.w3.org/2000/svg"
   xmlns:xlink="http://www.w3.org/1999/xlink"
   xmlns:sodipodi="http://sodipodi.sourceforge.net/DTD/sodipodi-0.dtd"
   xmlns:inkscape="http://www.inkscape.org/namespaces/inkscape"
   version="1.1"
   viewBox="0.0 0.0 960.0 540.0"
   fill="none"
   stroke="none"
   stroke-linecap="square"
   stroke-miterlimit="10"
   id="svg4502"
   sodipodi:docname="tofraweb1.svg"
   inkscape:version="0.92.1 r15371"
   inkscape:export-filename="C:\MAMP\htdocs\tofraweb\ci_tofraweb\assets\logo\tofraweb-logo.png"
   inkscape:export-xdpi="96"
   inkscape:export-ydpi="96">
  <metadata
     id="metadata4508">
    <rdf:RDF>
      <cc:Work
         rdf:about="">
        <dc:format>image/svg+xml</dc:format>
        <dc:type
           rdf:resource="http://purl.org/dc/dcmitype/StillImage" />
      </cc:Work>
    </rdf:RDF>
  </metadata>
  <defs
     id="defs4506">
    <linearGradient
       inkscape:collect="always"
       id="linearGradient6060">
      <stop
         style="stop-color:#1da2c8;stop-opacity:1;"
         offset="0"
         id="stop6056" />
      <stop
         style="stop-color:#1da2c8;stop-opacity:0;"
         offset="1"
         id="stop6058" />
    </linearGradient>
    <linearGradient
       id="linearGradient5986"
       osb:paint="solid">
      <stop
         style="stop-color:#1da2c8;stop-opacity:1;"
         offset="0"
         id="stop5984" />
    </linearGradient>
    <inkscape:perspective
       sodipodi:type="inkscape:persp3d"
       inkscape:vp_x="-94.591195 : 274.02516 : 1"
       inkscape:vp_y="0 : 1000 : 0"
       inkscape:vp_z="960 : 444.42348 : 1"
       inkscape:persp3d-origin="480 : 180 : 1"
       id="perspective4510" />
    <linearGradient
       inkscape:collect="always"
       xlink:href="#linearGradient6060"
       id="linearGradient6064"
       x1="197.14465"
       y1="110.00557"
       x2="747.24945"
       y2="110.00557"
       gradientUnits="userSpaceOnUse"
       gradientTransform="matrix(0.76078011,0,0,0.4518711,126.1448,76.267831)" />
  </defs>
  <sodipodi:namedview
     pagecolor="#ffffff"
     bordercolor="#666666"
     borderopacity="1"
     objecttolerance="10"
     gridtolerance="10"
     guidetolerance="10"
     inkscape:pageopacity="0"
     inkscape:pageshadow="2"
     inkscape:window-width="1920"
     inkscape:window-height="1001"
     id="namedview4504"
     showgrid="false"
     inkscape:zoom="1.490625"
     inkscape:cx="314.83892"
     inkscape:cy="270"
     inkscape:window-x="-9"
     inkscape:window-y="-9"
     inkscape:window-maximized="1"
     inkscape:current-layer="svg4502" />
  <clipPath
     id="g249813cbc4_0_58.0">
    <path
       d="m0 0l960.0 0l0 540.0l-960.0 0l0 -540.0z"
       clip-rule="nonzero"
       id="path4485" />
  </clipPath>
  <g
     clip-path="url(#g249813cbc4_0_58.0)"
     id="g4500"
     inkscape:export-xdpi="96"
     inkscape:export-ydpi="96">
    <path
       fill="#ffffff"
       d="m0 0l960.0 0l0 540.0l-960.0 0z"
       fill-rule="evenodd"
       id="path4488" />
    <path
       fill="#000000"
       fill-opacity="0.0"
       d="m28.724848 78.1706l894.55115 0l0 215.49606l-894.55115 0z"
       fill-rule="evenodd"
       id="path4490" />
    <path
       fill="#1da2c8"
       d="m207.12997 190.6698l-5.875 0q-1.765625 0 -2.4375 -0.578125q-0.65625 -0.59375 -0.65625 -2.359375l0 -10.15625q0 -3.078125 3.09375 -3.078125l5.875 0q1.609375 0 1.609375 -1.625l0 -13.953125q0 -3.09375 3.234375 -3.09375l12.359375 0q3.078125 0 3.078125 3.09375l0 13.953125q0 1.625 1.765625 1.625l11.46875 0q3.09375 0 3.09375 3.078125l0 10.15625q0 1.609375 -0.671875 2.28125q-0.65625 0.65625 -2.421875 0.65625l-11.46875 0q-1.765625 0 -1.765625 1.609375l0 32.484375q0 4.5625 2.0625 6.546875q2.0625 1.984375 6.765625 1.984375l5.875 0q3.09375 0 3.09375 3.09375l0 10.140625q0 1.609375 -0.671875 2.28125q-0.65625 0.65625 -2.421875 0.65625l-8.96875 0q-11.609375 0 -18.015625 -6.171875q-6.390625 -6.171875 -6.390625 -17.640625l0 -33.375q0 -1.609375 -1.609375 -1.609375zm86.019684 58.796875l-13.0781555 0q-11.625 0 -17.953125 -6.171875q-6.3124847 -6.171875 -6.3124847 -17.796875l0 -27.046875q0 -11.609375 6.3124847 -17.78125q6.328125 -6.171875 17.953125 -6.171875l13.0781555 0q11.46875 0 17.859375 6.25q6.390625 6.25 6.390625 17.703125l0 27.046875q0 11.46875 -6.390625 17.71875q-6.390625 6.25 -17.859375 6.25zm-10.2969055 -16.015625l7.5000305 0q4.703125 0 6.6875 -1.90625q1.984375 -1.921875 1.984375 -6.625l0 -25.875q0 -4.703125 -1.984375 -6.609375q-1.984375 -1.921875 -6.6875 -1.921875l-7.5000305 0q-4.703125 0 -6.609375 1.921875q-1.90625 1.90625 -1.90625 6.609375l0 25.875q0 4.703125 1.90625 6.625q1.90625 1.90625 6.609375 1.90625zm76.27304 -58.953125l11.765625 0q1.75 0 2.40625 0.671875q0.671875 0.65625 0.671875 2.265625l0 10.140625q0 3.09375 -3.078125 3.09375l-11.765625 0q-1.625 0 -1.625 1.609375l0 54.09375q0 3.09375 -3.234375 3.09375l-12.34375 0q-3.078125 0 -3.078125 -3.09375l0 -54.09375q0 -1.609375 -1.765625 -1.609375l-6.765625 0q-3.09375 0 -3.09375 -3.09375l0 -10.140625q0 -1.765625 0.65625 -2.34375q0.671875 -0.59375 2.4375 -0.59375l6.765625 0q1.765625 0 1.765625 -1.625l0 -2.78125q0 -11.625 6.09375 -17.796875q6.09375 -6.171875 17.71875 -6.171875l8.375 0q1.765625 0 2.34375 0.671875q0.59375 0.65625 0.59375 2.265625l0 10.140625q0 3.09375 -2.9375 3.09375l-5.4375 0q-4.703125 0 -6.40625 1.984375q-1.6875 1.984375 -1.6875 6.6875l0 1.90625q0 1.625 1.625 1.625zm40.306946 74.96875l-12.5 0q-3.09375 0 -3.09375 -3.09375l0 -68.796875q0 -3.078125 3.09375 -3.078125l12.5 0q3.078125 0 3.078125 3.078125l0 5.0l0.59375 0q1.609375 -3.96875 5.71875 -6.015625q4.125 -2.0625 8.6875 -2.0625l5.296875 0q2.9375 0 2.9375 3.078125l0 10.15625q0 1.765625 -0.671875 2.421875q-0.65625 0.65625 -2.265625 0.515625l-10.15625 0q-10.140625 0 -10.140625 11.46875l0 44.234375q0 3.09375 -3.078125 3.09375zm61.901794 0l-3.515625 0q-11.625 0 -17.953125 -6.171875q-6.3125 -6.171875 -6.3125 -17.796875l0 -27.046875q0 -11.609375 6.3125 -17.78125q6.328125 -6.171875 17.953125 -6.171875l33.953125 0q3.234375 0 3.234375 3.078125l0 68.796875q0 3.09375 -3.234375 3.09375l-12.34375 0q-3.09375 0 -3.09375 -3.09375l0 -4.84375l-0.59375 0q-1.609375 3.96875 -5.734375 5.953125q-4.109375 1.984375 -8.671875 1.984375zm15.0 -27.34375l0 -29.84375q0 -1.609375 -1.765625 -1.609375l-13.8125 0q-4.703125 0 -6.625 1.984375q-1.90625 1.984375 -1.90625 6.6875l0 25.28125q0 4.703125 1.90625 6.6875q1.921875 1.984375 6.625 1.984375l5.4375 0q10.140625 0 10.140625 -11.171875z"
       fill-rule="nonzero"
       id="path4492" />
    <path
       fill="#1784a4"
       d="m540.99 249.46667l-16.765625 0q-2.796875 0 -3.53125 -3.09375l-14.6874695 -68.796875q-0.59375 -3.078125 2.203125 -3.078125l14.1093445 0q3.234375 0 3.53125 3.078125l6.609375 50.28125l1.171875 0l10.4375 -50.28125q0.4375 -3.078125 3.390625 -3.078125l12.9375 0q3.078125 0 3.671875 3.078125l10.140625 50.28125l1.171875 0l6.765625 -50.28125q0.4375 -3.078125 3.53125 -3.078125l14.109375 0q2.9375 0 2.203125 3.078125l-14.703125 68.796875q-0.578125 3.09375 -3.53125 3.09375l-16.75 0q-2.9375 0 -3.53125 -3.09375l-8.96875 -49.671875l-1.171875 0l-8.828125 49.671875q-0.4375 3.09375 -3.515625 3.09375zm127.354065 0l-32.484375 0q-11.625 0 -17.953125 -6.171875q-6.3125 -6.171875 -6.3125 -17.796875l0 -27.046875q0 -11.609375 6.3125 -17.78125q6.328125 -6.171875 17.953125 -6.171875l11.609375 0q11.609375 0 17.921875 6.171875q6.328125 6.171875 6.328125 17.78125l0 18.671875q0 3.09375 -3.078125 3.09375l-36.90625 0q-1.765625 0 -1.765625 1.609375l0 3.234375q0 4.5625 1.984375 6.546875q1.984375 1.984375 6.6875 1.984375l29.703125 0q3.078125 0 3.078125 3.234375l0 9.703125q0 1.609375 -0.65625 2.28125q-0.65625 0.65625 -2.421875 0.65625zm-36.609375 -41.75l20.0 0q1.609375 0 1.609375 -1.609375l0 -7.0625q0 -4.703125 -1.90625 -6.609375q-1.90625 -1.921875 -6.609375 -1.921875l-6.1875 0q-4.703125 0 -6.609375 1.921875q-1.90625 1.90625 -1.90625 6.609375l0 7.0625q0 1.609375 1.609375 1.609375zm74.07318 25.578125l14.984375 0q4.703125 0 6.6875 -1.984375q1.984375 -1.984375 1.984375 -6.6875l0 -25.578125q0 -4.703125 -1.984375 -6.6875q-1.984375 -1.984375 -6.6875 -1.984375l-6.46875 0q-10.140625 0 -10.140625 11.171875l0 30.140625q0 1.609375 1.625 1.609375zm-20.296875 13.078125l0 -97.15625q0 -3.09375 3.09375 -3.09375l12.5 0q3.078125 0 3.078125 3.09375l0 33.078125l0.59375 0q1.609375 -3.96875 5.71875 -6.03125q4.125 -2.0625 8.6875 -2.0625l4.703125 0q11.609375 0 17.921875 6.171875q6.328125 6.171875 6.328125 17.796875l0 27.328125q0 11.625 -6.328125 17.796875q-6.3125 6.171875 -17.921875 6.171875l-35.28125 0q-3.09375 0 -3.09375 -3.09375z"
       fill-rule="nonzero"
       id="path4494" />
    <path
       fill="#000000"
       fill-opacity="0.0"
       d="m32.72441 237.13649l894.55115 0l0 83.2126l-894.55115 0z"
       fill-rule="evenodd"
       id="path4496" />
    <path
       fill="#1784a4"
       d="m263.23566 307.57648l-3.90625 0q-0.890625 0 -1.09375 -0.890625l-8.187485 -30.859375q-0.1875 -0.890625 0.640625 -0.890625l3.265625 0q0.828125 0 1.015625 0.890625l6.2187347 26.125l0.375 0l6.59375 -26.125q0.1875 -0.890625 1.03125 -0.890625l2.9375 0q0.890625 0 1.15625 0.890625l6.390625 26.125l0.390625 0l6.265625 -26.125q0.203125 -0.890625 1.03125 -0.890625l3.265625 0q0.828125 0 0.640625 0.890625l-8.1875 30.859375q-0.203125 0.890625 -1.09375 0.890625l-3.96875 0q-0.828125 0 -1.03125 -0.890625l-6.203125 -25.484375l-0.3125 0l-6.15625 25.484375q-0.1875 0.890625 -1.078125 0.890625zm56.18518 0l-13.5625 0q-4.421875 0 -6.953125 -2.484375q-2.515625 -2.5 -2.515625 -6.984375l0 -13.703125q0 -4.46875 2.515625 -6.96875q2.53125 -2.5 6.953125 -2.5l5.375 0q4.421875 0 6.90625 2.5q2.5 2.5 2.5 6.96875l0 8.125q0 0.96875 -0.890625 0.96875l-18.109375 0q-0.640625 0 -0.640625 0.578125l0 3.90625q0 5.5625 5.375 5.5625l13.046875 0q0.90625 0 0.90625 0.890625l0 2.3125q0 0.828125 -0.90625 0.828125zm-17.78125 -17.46875l13.8125 0q0.640625 0 0.640625 -0.640625l0 -4.9375q0 -5.5 -5.375 -5.5l-4.34375 0q-5.375 0 -5.375 5.5l0 4.9375q0 0.640625 0.640625 0.640625zm32.19107 13.375l9.078125 0q5.4375 0 5.4375 -5.5625l0 -13.703125q0 -5.5625 -5.4375 -5.5625l-3.765625 0q-2.890625 0 -4.421875 1.53125q-1.53125 1.53125 -1.53125 4.28125l0 18.4375q0 0.578125 0.640625 0.578125zm-5.3125 3.203125l0 -43.203125q0 -0.890625 0.890625 -0.890625l2.875 0q0.90625 0 0.90625 0.890625l0 14.46875l0.25 0q1.59375 -3.40625 6.53125 -3.40625l3.578125 0q4.359375 0 6.875 2.5q2.53125 2.5 2.53125 6.921875l0 14.140625q0 4.484375 -2.53125 6.984375q-2.515625 2.484375 -6.875 2.484375l-14.140625 0q-0.890625 0 -0.890625 -0.890625zm61.239655 0.890625l-3.78125 0q-4.34375 0 -6.78125 -2.484375q-2.421875 -2.5 -2.421875 -6.984375l0 -13.703125q0 -4.46875 2.421875 -6.96875q2.4375 -2.5 6.78125 -2.5l3.78125 0q5.0 0 6.59375 3.390625l0.25 0l0 -14.84375q0 -0.890625 0.84375 -0.890625l2.9375 0q0.828125 0 0.828125 0.890625l0 43.203125q0 0.890625 -0.828125 0.890625l-2.9375 0q-0.84375 0 -0.84375 -0.890625l0 -2.5l-0.25 0q-1.59375 3.390625 -6.59375 3.390625zm6.84375 -9.984375l0 -12.671875q0 -2.8125 -1.53125 -4.34375q-1.53125 -1.546875 -4.421875 -1.546875l-3.890625 0q-5.3125 0 -5.3125 5.578125l0 13.3125q0 5.5625 5.3125 5.5625l3.890625 0q2.890625 0 4.421875 -1.53125q1.53125 -1.546875 1.53125 -4.359375zm35.84305 9.984375l-13.5625 0q-4.421875 0 -6.953125 -2.484375q-2.515625 -2.5 -2.515625 -6.984375l0 -13.703125q0 -4.46875 2.515625 -6.96875q2.53125 -2.5 6.953125 -2.5l5.375 0q4.421875 0 6.90625 2.5q2.5 2.5 2.5 6.96875l0 8.125q0 0.96875 -0.890625 0.96875l-18.109375 0q-0.640625 0 -0.640625 0.578125l0 3.90625q0 5.5625 5.375 5.5625l13.046875 0q0.90625 0 0.90625 0.890625l0 2.3125q0 0.828125 -0.90625 0.828125zm-17.78125 -17.46875l13.8125 0q0.640625 0 0.640625 -0.640625l0 -4.9375q0 -5.5 -5.375 -5.5l-4.34375 0q-5.375 0 -5.375 5.5l0 4.9375q0 0.640625 0.640625 0.640625zm24.378601 -15.171875l3.0 0q0.84375 0 1.03125 0.890625l7.671875 27.078125l0.328125 0l7.609375 -27.078125q0.265625 -0.890625 1.09375 -0.890625l3.0 0q0.90625 0 0.640625 0.890625l-9.203125 30.796875q-0.203125 0.953125 -1.15625 0.953125l-4.359375 0q-0.890625 0 -1.140625 -0.953125l-9.15625 -30.796875q-0.25 -0.890625 0.640625 -0.890625zm52.47455 32.640625l-13.5625 0q-4.421875 0 -6.953125 -2.484375q-2.515625 -2.5 -2.515625 -6.984375l0 -13.703125q0 -4.46875 2.515625 -6.96875q2.53125 -2.5 6.953125 -2.5l5.375 0q4.421875 0 6.90625 2.5q2.5 2.5 2.5 6.96875l0 8.125q0 0.96875 -0.890625 0.96875l-18.109375 0q-0.640625 0 -0.640625 0.578125l0 3.90625q0 5.5625 5.375 5.5625l13.046875 0q0.90625 0 0.90625 0.890625l0 2.3125q0 0.828125 -0.90625 0.828125zm-17.78125 -17.46875l13.8125 0q0.640625 0 0.640625 -0.640625l0 -4.9375q0 -5.5 -5.375 -5.5l-4.34375 0q-5.375 0 -5.375 5.5l0 4.9375q0 0.640625 0.640625 0.640625zm30.972351 17.46875l-2.890625 0q-0.890625 0 -0.890625 -0.890625l0 -43.203125q0 -0.890625 0.890625 -0.890625l2.890625 0q0.890625 0 0.890625 0.890625l0 43.203125q0 0.890625 -0.890625 0.890625zm24.378326 0l-5.5 0q-4.421875 0 -6.953125 -2.484375q-2.515625 -2.5 -2.515625 -6.984375l0 -13.703125q0 -4.46875 2.515625 -6.96875q2.53125 -2.5 6.953125 -2.5l5.5 0q4.421875 0 6.9375 2.5q2.53125 2.5 2.53125 6.96875l0 13.703125q0 4.484375 -2.53125 6.984375q-2.515625 2.484375 -6.9375 2.484375zm-4.984375 -4.09375l4.46875 0q5.375 0 5.375 -5.5l0 -13.453125q0 -5.5 -5.375 -5.5l-4.46875 0q-5.375 0 -5.375 5.5l0 13.453125q0 5.5 5.375 5.5zm26.421814 13.4375l-2.875 0q-0.890625 0 -0.890625 -0.890625l0 -40.203125q0 -0.890625 0.890625 -0.890625l2.875 0q0.90625 0 0.90625 0.890625l0 2.5l0.25 0q1.59375 -3.390625 6.53125 -3.390625l3.84375 0q4.34375 0 6.734375 2.5q2.40625 2.5 2.40625 6.96875l0 13.703125q0 4.484375 -2.40625 6.984375q-2.390625 2.484375 -6.734375 2.484375l-3.84375 0q-4.9375 0 -6.53125 -3.390625l-0.25 0l0 11.84375q0 0.890625 -0.90625 0.890625zm6.859375 -13.4375l3.765625 0q5.4375 0 5.4375 -5.5625l0 -13.3125q0 -5.578125 -5.4375 -5.578125l-3.765625 0q-2.890625 0 -4.421875 1.546875q-1.53125 1.53125 -1.53125 4.34375l0 12.671875q0 2.8125 1.53125 4.359375q1.53125 1.53125 4.421875 1.53125zm25.78064 4.09375l-2.875 0q-0.890625 0 -0.890625 -0.890625l0 -30.859375q0 -0.890625 0.890625 -0.890625l2.875 0q0.90625 0 0.90625 0.890625l0 2.5l0.25 0q1.796875 -3.390625 6.78125 -3.390625l2.375 0q5.625 0 7.796875 4.359375q1.03125 -2.125 3.234375 -3.234375q2.21875 -1.125 4.640625 -1.125l2.25 0q4.34375 0 6.765625 2.5q2.4375 2.5 2.4375 6.96875l0 22.28125q0 0.890625 -0.890625 0.890625l-2.875 0q-0.90625 0 -0.90625 -0.890625l0 -22.078125q0 -5.578125 -5.375 -5.578125l-2.109375 0q-2.875 0 -4.453125 1.640625q-1.5625 1.625 -1.5625 4.4375l0 21.578125q0 0.890625 -0.890625 0.890625l-2.875 0q-0.90625 0 -0.90625 -0.890625l0 -22.078125q0 -5.578125 -5.375 -5.578125l-2.359375 0q-2.890625 0 -4.421875 1.546875q-1.53125 1.53125 -1.53125 4.34375l0 21.765625q0 0.890625 -0.90625 0.890625zm68.352905 0l-13.5625 0q-4.421875 0 -6.953125 -2.484375q-2.515625 -2.5 -2.515625 -6.984375l0 -13.703125q0 -4.46875 2.515625 -6.96875q2.53125 -2.5 6.953125 -2.5l5.375 0q4.421875 0 6.90625 2.5q2.5 2.5 2.5 6.96875l0 8.125q0 0.96875 -0.890625 0.96875l-18.109375 0q-0.640625 0 -0.640625 0.578125l0 3.90625q0 5.5625 5.375 5.5625l13.046875 0q0.90625 0 0.90625 0.890625l0 2.3125q0 0.828125 -0.90625 0.828125zm-17.78125 -17.46875l13.8125 0q0.640625 0 0.640625 -0.640625l0 -4.9375q0 -5.5 -5.375 -5.5l-4.34375 0q-5.375 0 -5.375 5.5l0 4.9375q0 0.640625 0.640625 0.640625zm30.644165 17.46875l-2.875 0q-0.890625 0 -0.890625 -0.890625l0 -30.859375q0 -0.890625 0.890625 -0.890625l2.875 0q0.90625 0 0.90625 0.890625l0 2.5l0.25 0q1.59375 -3.390625 6.53125 -3.390625l3.578125 0q4.359375 0 6.78125 2.5q2.4375 2.5 2.4375 6.96875l0 22.28125q0 0.890625 -0.890625 0.890625l-2.890625 0q-0.890625 0 -0.890625 -0.890625l0 -22.078125q0 -5.578125 -5.375 -5.578125l-3.578125 0q-2.890625 0 -4.421875 1.546875q-1.53125 1.53125 -1.53125 4.34375l0 21.765625q0 0.890625 -0.90625 0.890625zm30.205444 -28.546875l-3.515625 0q-0.890625 0 -0.890625 -0.828125l0 -2.375q0 -0.890625 0.890625 -0.890625l3.515625 0q0.640625 0 0.640625 -0.578125l0 -5.5q0 -0.890625 0.90625 -0.890625l2.875 0q0.828125 0 0.828125 0.890625l0 5.5q0 0.578125 0.703125 0.578125l6.796875 0q0.953125 0 0.953125 0.890625l0 2.375q0 0.828125 -0.953125 0.828125l-6.796875 0q-0.703125 0 -0.703125 0.578125l0 18.4375q0 5.4375 5.640625 5.4375l2.5 0q0.953125 0 0.953125 0.890625l0 2.375q0 0.828125 -0.953125 0.828125l-3.078125 0q-4.421875 0 -7.046875 -2.453125q-2.625 -2.46875 -2.625 -6.890625l0 -18.625q0 -0.578125 -0.640625 -0.578125z"
       fill-rule="nonzero"
       id="path4498" />
  </g>
  <path
     style="fill:url(#linearGradient6064);fill-opacity:1;stroke-width:0.58632278"
     id="path6018"
     sodipodi:type="arc"
     sodipodi:cx="485.38336"
     sodipodi:cy="125.34067"
     sodipodi:rx="209.25441"
     sodipodi:ry="9.7005444"
     sodipodi:start="0"
     sodipodi:end="4.6887141"
     d="m 694.63777,125.34067 a 209.25441,9.7005444 0 0 1 -207.60307,9.70024 209.25441,9.7005444 0 0 1 -210.87968,-9.54714 209.25441,9.7005444 0 0 1 204.27473,-9.85093"
     transform="matrix(0.99995603,-0.00937726,0.05920596,0.99824579,0,0)"
     sodipodi:open="true" />
</svg>
