<?xml version="1.0" encoding="UTF-8" standalone="no"?>
<!-- Created with Inkscape (http://www.inkscape.org/) -->

<svg
   xmlns:dc="http://purl.org/dc/elements/1.1/"
   xmlns:cc="http://creativecommons.org/ns#"
   xmlns:rdf="http://www.w3.org/1999/02/22-rdf-syntax-ns#"
   xmlns:svg="http://www.w3.org/2000/svg"
   xmlns="http://www.w3.org/2000/svg"
   xmlns:sodipodi="http://sodipodi.sourceforge.net/DTD/sodipodi-0.dtd"
   xmlns:inkscape="http://www.inkscape.org/namespaces/inkscape"
   width="210mm"
   height="297mm"
   viewBox="0 0 210 297"
   version="1.1"
   id="svg4683"
   inkscape:version="0.92.1 r15371"
   sodipodi:docname="tofraweb-logo.svg">
  <defs
     id="defs4677" />
  <sodipodi:namedview
     id="base"
     pagecolor="#ffffff"
     bordercolor="#666666"
     borderopacity="1.0"
     inkscape:pageopacity="0.0"
     inkscape:pageshadow="2"
     inkscape:zoom="1.4"
     inkscape:cx="373.64227"
     inkscape:cy="863.04576"
     inkscape:document-units="mm"
     inkscape:current-layer="layer1"
     showgrid="false"
     inkscape:window-width="1920"
     inkscape:window-height="1001"
     inkscape:window-x="-9"
     inkscape:window-y="-9"
     inkscape:window-maximized="1" />
  <metadata
     id="metadata4680">
    <rdf:RDF>
      <cc:Work
         rdf:about="">
        <dc:format>image/svg+xml</dc:format>
        <dc:type
           rdf:resource="http://purl.org/dc/dcmitype/StillImage" />
        <dc:title></dc:title>
      </cc:Work>
    </rdf:RDF>
  </metadata>
  <g
     inkscape:label="Layer 1"
     inkscape:groupmode="layer"
     id="layer1">
    <path
       id="path6985"
       d="m 27.877465,55.885041 h -3.110598 c -0.623227,0 -1.038109,-0.115495 -1.244647,-0.346484 -0.2002,-0.237229 -0.253551,-0.708569 -0.160056,-1.414016 l 0.80671,-6.086836 c 0.162998,-1.229857 0.790505,-1.844783 1.882524,-1.844783 h 3.110599 c 0.568067,0 0.895127,-0.324633 0.981176,-0.973894 l 1.108296,-8.362373 c 0.163824,-1.236096 0.816567,-1.854144 1.958223,-1.854144 h 6.543837 c 1.086507,0 1.547845,0.618048 1.384021,1.854144 l -1.108295,8.362373 c -0.08605,0.649261 0.182536,0.973894 0.805758,0.973894 h 6.072286 c 1.092018,0 1.556529,0.614926 1.393532,1.844783 l -0.80671,6.086836 c -0.08522,0.643016 -0.2642,1.09875 -0.536931,1.367197 -0.266391,0.262202 -0.711196,0.393303 -1.334423,0.393303 h -6.072286 c -0.623221,0 -0.977442,0.321511 -1.062664,0.964527 l -2.580232,19.468514 c -0.2416,1.822932 -0.05093,3.13082 0.572001,3.923666 0.622934,0.792851 1.764445,1.189277 3.424531,1.189277 h 3.110599 c 1.092019,0 1.556116,0.618048 1.392291,1.854144 l -0.805469,6.077469 c -0.08522,0.643021 -0.2642,1.098756 -0.53693,1.367197 -0.26639,0.262202 -0.711196,0.393303 -1.334423,0.393303 h -4.748627 c -4.097826,0 -7.113956,-1.232974 -9.048384,-3.698921 -1.928916,-2.465953 -2.58972,-5.990076 -1.982412,-10.572369 l 2.650974,-20.00228 c 0.08522,-0.643016 -0.156204,-0.964527 -0.724271,-0.964527 z"
       style="fill:#09afdf;fill-rule:nonzero;stroke:none;stroke-width:0.56330967;stroke-linecap:square;stroke-miterlimit:10"
       inkscape:connector-curvature="0" />
    <path
       d="m 61.216251,81.524668 h 3.970993 c 1.660085,0 2.890821,-0.380819 3.692201,-1.142452 0.802203,-0.767878 1.32783,-2.091378 1.576875,-3.97049 L 72.51157,60.90434 c 0.249046,-1.879118 0.07382,-3.199496 -0.525669,-3.961129 -0.598668,-0.767877 -1.728049,-1.151813 -3.388134,-1.151813 h -3.970993 c -1.660091,0 -2.877452,0.383936 -3.652081,1.151813 -0.7738,0.761633 -1.285226,2.082011 -1.534272,3.961129 l -2.05525,15.507386 c -0.249045,1.879112 -0.08802,3.202612 0.483067,3.97049 0.571916,0.761633 1.687922,1.142452 3.348013,1.142452 z m 4.179714,9.59847 H 58.47156 c -4.103343,0 -7.108444,-1.232974 -9.015298,-3.698921 -1.90133,-2.465953 -2.544205,-6.021288 -1.928623,-10.666013 l 2.148331,-16.20971 c 0.614755,-4.638485 2.199619,-8.190698 4.754592,-10.656645 2.560496,-2.465953 5.892418,-3.698927 9.995762,-3.698927 h 6.924404 c 4.048189,0 7.034674,1.24858 8.959454,3.745745 1.924775,2.497166 2.583926,6.033773 1.977441,10.609827 l -2.148331,16.20971 c -0.607305,4.582294 -2.20431,8.122023 -4.790998,10.619189 -2.586696,2.497165 -5.90414,3.745745 -9.952329,3.745745 z"
       style="fill:#09afdf;fill-rule:nonzero;stroke:none;stroke-width:0.56330967;stroke-linecap:square;stroke-miterlimit:10"
       id="path6987"
       inkscape:connector-curvature="0" />
    <path
       id="path6989"
       d="m 131.05756,91.123138 h -6.6183 c -1.09201,0 -1.55611,-0.618048 -1.39229,-1.854144 l 5.46453,-41.231289 c 0.163,-1.229857 0.79051,-1.844783 1.88253,-1.844783 h 6.61829 c 1.08651,0 1.94013,0.702888 1.38526,1.844783 l -0.39714,2.996596 h 0.31437 c 0.77822,-1.585697 1.94678,-2.787458 3.50569,-3.605283 1.56524,-0.824064 3.15308,-1.236096 4.76353,-1.236096 h 2.8045 c 1.03687,0 1.47381,0.614926 1.31081,1.844783 l -0.80671,6.086836 c -0.0935,0.705447 -0.2762,1.189271 -0.5481,1.451473 -0.26639,0.262202 -0.6799,0.365213 -1.24053,0.309027 h -5.37736 c -3.57939,0 -5.67275,2.29115 -6.28005,6.873443 l -3.51354,26.51051 c -0.16382,1.236096 -0.78898,1.854144 -1.87549,1.854144 z"
       style="color:#000000;clip-rule:nonzero;display:inline;overflow:visible;visibility:visible;opacity:1;isolation:auto;mix-blend-mode:normal;color-interpolation:sRGB;color-interpolation-filters:linearRGB;solid-color:#000000;solid-opacity:1;fill:#1783a4;fill-opacity:1;fill-rule:nonzero;stroke:none;stroke-width:0.56330967;stroke-linecap:butt;stroke-linejoin:miter;stroke-miterlimit:10;stroke-dasharray:none;stroke-dashoffset:0;stroke-opacity:1;marker:none;color-rendering:auto;image-rendering:auto;shape-rendering:auto;text-rendering:auto;enable-background:accumulate"
       inkscape:connector-curvature="0" />
    <path
       d="m 172.32106,74.735502 2.37049,-17.885934 c 0.0852,-0.643016 -0.18378,-0.964527 -0.80701,-0.964527 h -7.31322 c -1.66008,0 -2.88186,0.396426 -3.66531,1.189271 -0.77794,0.792852 -1.29143,2.128836 -1.54048,4.007948 l -2.00809,15.15154 c -0.24904,1.879118 -0.0897,3.215102 0.4781,4.007948 0.5733,0.792851 1.69,1.189277 3.35008,1.189277 h 2.87896 c 3.5794,0 5.66489,-2.231841 6.25648,-6.695523 z m -10.11387,16.387636 h -1.8614 c -4.10334,0 -7.10844,-1.232974 -9.01529,-3.698921 -1.90134,-2.465953 -2.54422,-6.021288 -1.92863,-10.666013 l 2.14833,-16.20971 c 0.61475,-4.638485 2.19962,-8.190698 4.7546,-10.656645 2.5605,-2.465953 5.89241,-3.698927 9.99575,-3.698927 h 17.97695 c 1.14166,0 1.63099,0.614926 1.46799,1.844783 l -5.46453,41.231289 c -0.16382,1.236096 -0.81656,1.854144 -1.95822,1.854144 h -6.53557 c -1.09201,0 -1.55611,-0.618048 -1.39229,-1.854144 l 0.38474,-2.902953 h -0.31437 c -0.77823,1.585697 -1.94789,2.774974 -3.509,3.567826 -1.55559,0.792845 -3.1386,1.189271 -4.74906,1.189271 z"
       style="color:#000000;clip-rule:nonzero;display:inline;overflow:visible;visibility:visible;opacity:1;isolation:auto;mix-blend-mode:normal;color-interpolation:sRGB;color-interpolation-filters:linearRGB;solid-color:#000000;solid-opacity:1;fill:#1783a4;fill-opacity:1;fill-rule:nonzero;stroke:none;stroke-width:0.56330967;stroke-linecap:butt;stroke-linejoin:miter;stroke-miterlimit:10;stroke-dasharray:none;stroke-dashoffset:0;stroke-opacity:1;marker:none;color-rendering:auto;image-rendering:auto;shape-rendering:auto;text-rendering:auto;enable-background:accumulate"
       id="path6991"
       inkscape:connector-curvature="0" />
    <g
       style="fill:none;stroke:none;stroke-linecap:square;stroke-miterlimit:10"
       id="g7025"
       transform="matrix(0.52946363,0,-0.07942994,0.59931926,40.817885,-62.098938)">
      <path
         inkscape:connector-curvature="0"
         style="color:#000000;clip-rule:nonzero;display:inline;overflow:visible;visibility:visible;opacity:1;isolation:auto;mix-blend-mode:normal;color-interpolation:sRGB;color-interpolation-filters:linearRGB;solid-color:#000000;solid-opacity:1;fill:#09afdf;fill-opacity:1;fill-rule:nonzero;stroke:none;stroke-width:1;stroke-linecap:butt;stroke-linejoin:miter;stroke-miterlimit:10;stroke-dasharray:none;stroke-dashoffset:0;stroke-opacity:1;marker:none;color-rendering:auto;image-rendering:auto;shape-rendering:auto;text-rendering:auto;enable-background:accumulate"
         d="m 141.60082,150.27309 c -12.95924,0 -23.39258,10.58327 -23.39258,23.72852 v 57.77148 c 0,11.54235 8.04439,21.10445 18.7793,23.26562 l 4.84147,27.21538 c 0,0 0.0473,-58.87373 0.0492,-83.78175 0,-1.07291 -0.58853,-1.60938 -1.76562,-1.60938 h -6.76563 c -2.0625,0 -3.09375,-1.03125 -3.09375,-3.09375 v -10.14062 c 0,-1.17708 0.21875,-1.95833 0.65625,-2.34375 0.44791,-0.39583 1.26041,-0.59375 2.4375,-0.59375 h 6.76563 c 1.17709,0 1.76562,-0.54167 1.76562,-1.625 v -2.78125 c 0,-7.75 2.03125,-13.6823 6.09375,-17.79688 4.0625,-4.11458 9.96875,-6.17187 17.71875,-6.17187 h 4.45117 c -2.90689,-1.30928 -6.12527,-2.04297 -9.52148,-2.04297 h -19.01953 z"
         id="path6993"
         sodipodi:nodetypes="csscccsssscsssssscscc" />
      <path
         style="color:#000000;clip-rule:nonzero;display:inline;overflow:visible;visibility:visible;opacity:1;isolation:auto;mix-blend-mode:normal;color-interpolation:sRGB;color-interpolation-filters:linearRGB;solid-color:#000000;solid-opacity:1;fill:#1783a4;fill-opacity:1;fill-rule:nonzero;stroke:none;stroke-width:1;stroke-linecap:butt;stroke-linejoin:miter;stroke-miterlimit:10;stroke-dasharray:none;stroke-dashoffset:0;stroke-opacity:1;marker:none;color-rendering:auto;image-rendering:auto;shape-rendering:auto;text-rendering:auto;enable-background:accumulate"
         d="m 175.83984,168.48828 c -3.13542,0 -5.36925,0.66147 -6.70312,1.98438 -1.32347,1.32292 -2.22103,3.55209 -2.69141,6.6875 l -0.28515,1.90625 c -0.16252,1.08333 0.29753,1.625 1.38086,1.625 h 11.76562 c 1.16667,0 1.93438,0.22395 2.30469,0.67187 0.38228,0.4375 0.49299,1.19272 0.33203,2.26563 l -1.52148,10.14062 c -0.30942,2.0625 -1.48893,3.09375 -3.54102,3.09375 h -11.76563 c -1.08333,0 -1.70623,0.53647 -1.86718,1.60938 -2.64415,18.88471 -8.57426,56.81467 -8.57426,56.81467 0,0 2.05466,0.17056 4.97857,-0.23463 9.71809,-1.82151 20.31884,-13.28613 22.07815,-23.27931 l 8.66797,-57.77149 c 0.2851,-1.90046 0.33629,-3.74457 0.18945,-5.51367 z"
         transform="matrix(1,0,0.15001963,1,-32.488867,0)"
         id="path6995"
         inkscape:connector-curvature="0"
         sodipodi:nodetypes="scccsscccssccccccs" />
    </g>
    <g
       style="fill:none;stroke:none;stroke-linecap:square;stroke-miterlimit:10"
       id="g7166"
       transform="matrix(0.52946363,0,0.0439205,0.59931926,11.666092,-62.098938)">
      <path
         id="path6997"
         d="m 81.415624,279.28754 h -1.762246 q -0.406654,0 -0.438799,-0.36364 l -1.697418,-12.4651 q -0.03206,-0.36365 0.340669,-0.36365 h 1.47982 q 0.372778,0 0.404921,0.36365 l 1.110783,10.55593 h 0.180731 l 4.661664,-10.55593 q 0.148547,-0.36365 0.521399,-0.36365 h 1.332977 q 0.406677,0 0.461389,0.36365 l 1.201158,10.55593 h 0.169446 l 4.526116,-10.55593 q 0.148548,-0.36365 0.5214,-0.36365 h 1.47982 q 0.372779,0 0.224147,0.36365 l -5.690406,12.4651 q -0.148547,0.36364 -0.555275,0.36364 h -1.796131 q -0.37279,0 -0.393606,-0.36364 l -1.164154,-10.2933 h -0.146854 l -4.416277,10.2933 q -0.148546,0.36364 -0.555274,0.36364 z"
         style="color:#000000;clip-rule:nonzero;display:inline;overflow:visible;visibility:visible;opacity:1;isolation:auto;mix-blend-mode:normal;color-interpolation:sRGB;color-interpolation-filters:linearRGB;solid-color:#000000;solid-opacity:1;fill:#09afdf;fill-opacity:1;fill-rule:nonzero;stroke:none;stroke-width:1;stroke-linecap:butt;stroke-linejoin:miter;stroke-miterlimit:10;stroke-dasharray:none;stroke-dashoffset:0;stroke-opacity:1;marker:none;color-rendering:auto;image-rendering:auto;shape-rendering:auto;text-rendering:auto;enable-background:accumulate"
         inkscape:connector-curvature="0" />
      <path
         d="m 100.15394,272.22668 h 6.2469 q 0.29372,0 0.33416,-0.25254 l 0.32035,-2.00008 q 0.35594,-2.22229 -2.08407,-2.22229 h -1.96557 q -2.42873,0 -2.78468,2.22229 l -0.320343,2.00008 q -0.0404,0.25254 0.253253,0.25254 z m 6.91212,7.06086 h -6.13395 q -1.999457,0 -2.9786,-1.01014 -0.979162,-1.01014 -0.689556,-2.81829 l 0.886615,-5.53555 q 0.289603,-1.80814 1.592358,-2.81828 1.302723,-1.01013 3.302183,-1.01013 h 2.42872 q 1.99948,0 2.95602,1.01013 0.96785,1.01014 0.67825,2.81828 l -0.52582,3.28295 q -0.0631,0.39396 -0.46979,0.39396 h -8.178593 q -0.293703,0 -0.330913,0.23233 l -0.252393,1.57581 q -0.360789,2.25259 2.067949,2.25259 h 5.908 q 0.39539,0 0.33713,0.36366 l -0.14882,0.92932 q -0.0534,0.33336 -0.44877,0.33336 z"
         style="color:#000000;clip-rule:nonzero;display:inline;overflow:visible;visibility:visible;opacity:1;isolation:auto;mix-blend-mode:normal;color-interpolation:sRGB;color-interpolation-filters:linearRGB;solid-color:#000000;solid-opacity:1;fill:#09afdf;fill-opacity:1;fill-rule:nonzero;stroke:none;stroke-width:1;stroke-linecap:butt;stroke-linejoin:miter;stroke-miterlimit:10;stroke-dasharray:none;stroke-dashoffset:0;stroke-opacity:1;marker:none;color-rendering:auto;image-rendering:auto;shape-rendering:auto;text-rendering:auto;enable-background:accumulate"
         id="path6999"
         inkscape:connector-curvature="0" />
      <path
         d="m 111.41445,278.9239 2.79575,-17.45517 q 0.0582,-0.36365 0.45362,-0.36365 h 1.31038 q 0.40667,0 0.34842,0.36365 l -0.93677,5.84868 h 0.11297 q 0.94301,-1.37378 3.16839,-1.37378 h 1.61538 q 1.96557,0 2.94472,1.01014 0.99045,1.01012 0.70569,2.78797 l -0.91574,5.71738 q -0.2896,1.80815 -1.60362,2.81828 -1.30274,1.01014 -3.2683,1.01014 h -6.39376 q -0.39537,0 -0.33713,-0.36364 z m 2.60192,-1.29298 h 4.11189 q 2.45132,0 2.81211,-2.2526 l 0.885,-5.52546 q 0.3608,-2.25261 -2.09052,-2.25261 h -1.70576 q -1.31037,0 -2.09976,0.62629 -0.78778,0.61617 -0.96575,1.72734 l -1.1924,7.44471 q -0.0373,0.23233 0.24519,0.23233 z"
         style="color:#000000;clip-rule:nonzero;display:inline;overflow:visible;visibility:visible;opacity:1;isolation:auto;mix-blend-mode:normal;color-interpolation:sRGB;color-interpolation-filters:linearRGB;solid-color:#000000;solid-opacity:1;fill:#09afdf;fill-opacity:1;fill-rule:nonzero;stroke:none;stroke-width:1;stroke-linecap:butt;stroke-linejoin:miter;stroke-miterlimit:10;stroke-dasharray:none;stroke-dashoffset:0;stroke-opacity:1;marker:none;color-rendering:auto;image-rendering:auto;shape-rendering:auto;text-rendering:auto;enable-background:accumulate"
         id="path7001"
         inkscape:connector-curvature="0" />
      <path
         d="m 151.00154,275.25709 0.82029,-5.12139 q 0.18282,-1.14147 -0.41885,-1.75763 -0.58879,-0.6263 -1.88787,-0.6263 h -1.77352 q -2.39485,0 -2.75564,2.25261 l -0.86074,5.37393 q -0.36079,2.2526 2.03407,2.2526 h 1.77352 q 1.29908,0 2.08686,-0.61618 0.80067,-0.62629 0.98188,-1.75764 z m -3.74075,4.03045 h -1.70577 q -1.96556,0 -2.91081,-1.01014 -0.93397,-1.01014 -0.64436,-2.81829 l 0.88662,-5.53555 q 0.2896,-1.80814 1.54716,-2.81828 1.26882,-1.01013 3.23439,-1.01013 h 1.70576 q 2.24799,0 2.75092,1.37378 h 0.12425 l 0.96104,-6.0002 q 0.0582,-0.36366 0.43103,-0.36366 h 1.33298 q 0.37279,0 0.31454,0.36366 l -2.79576,17.45517 q -0.0582,0.36364 -0.43102,0.36364 h -1.33298 q -0.37279,0 -0.31454,-0.36364 l 0.16179,-1.01016 h -0.12424 q -0.94301,1.3738 -3.191,1.3738 z"
         style="color:#000000;clip-rule:nonzero;display:inline;overflow:visible;visibility:visible;opacity:1;isolation:auto;mix-blend-mode:normal;color-interpolation:sRGB;color-interpolation-filters:linearRGB;solid-color:#000000;solid-opacity:1;fill:#1783a4;fill-opacity:1;fill-rule:nonzero;stroke:none;stroke-width:1;stroke-linecap:butt;stroke-linejoin:miter;stroke-miterlimit:10;stroke-dasharray:none;stroke-dashoffset:0;stroke-opacity:1;marker:none;color-rendering:auto;image-rendering:auto;shape-rendering:auto;text-rendering:auto;enable-background:accumulate"
         id="path7003"
         inkscape:connector-curvature="0" />
      <path
         d="m 159.11708,272.22668 h 6.2469 q 0.29371,0 0.33416,-0.25254 l 0.32035,-2.00008 q 0.35594,-2.22229 -2.0841,-2.22229 h -1.96557 q -2.42872,0 -2.78466,2.22229 l -0.32035,2.00008 q -0.0404,0.25254 0.25327,0.25254 z m 6.9121,7.06086 h -6.13393 q -1.99947,0 -2.97861,-1.01014 -0.97916,-1.01014 -0.68955,-2.81829 l 0.88661,-5.53555 q 0.28962,-1.80814 1.59235,-2.81828 1.30272,-1.01013 3.30218,-1.01013 h 2.42871 q 1.99946,0 2.95603,1.01013 0.96783,1.01014 0.67823,2.81828 l -0.52582,3.28295 q -0.0631,0.39396 -0.46976,0.39396 h -8.17857 q -0.29373,0 -0.33094,0.23233 l -0.25239,1.57581 q -0.36079,2.25259 2.06793,2.25259 h 5.90802 q 0.39536,0 0.33712,0.36366 l -0.14882,0.92932 q -0.0534,0.33336 -0.44876,0.33336 z"
         style="color:#000000;clip-rule:nonzero;display:inline;overflow:visible;visibility:visible;opacity:1;isolation:auto;mix-blend-mode:normal;color-interpolation:sRGB;color-interpolation-filters:linearRGB;solid-color:#000000;solid-opacity:1;fill:#1783a4;fill-opacity:1;fill-rule:nonzero;stroke:none;stroke-width:1;stroke-linecap:butt;stroke-linejoin:miter;stroke-miterlimit:10;stroke-dasharray:none;stroke-dashoffset:0;stroke-opacity:1;marker:none;color-rendering:auto;image-rendering:auto;shape-rendering:auto;text-rendering:auto;enable-background:accumulate"
         id="path7005"
         inkscape:connector-curvature="0" />
      <path
         id="path7007"
         d="m 171.28679,266.09515 h 1.35557 q 0.37276,0 0.4049,0.36365 l 1.7158,10.93979 h 0.14684 l 5.1976,-10.93979 q 0.17121,-0.36365 0.54398,-0.36365 h 1.36688 q 0.39535,0 0.22415,0.36365 l -6.15033,12.44488 q -0.15177,0.38386 -0.5924,0.38386 h -1.96557 q -0.39539,0 -0.45815,-0.38386 l -2.14122,-12.44488 q -0.0547,-0.36365 0.35195,-0.36365 z"
         style="color:#000000;clip-rule:nonzero;display:inline;overflow:visible;visibility:visible;opacity:1;isolation:auto;mix-blend-mode:normal;color-interpolation:sRGB;color-interpolation-filters:linearRGB;solid-color:#000000;solid-opacity:1;fill:#1783a4;fill-opacity:1;fill-rule:nonzero;stroke:none;stroke-width:1;stroke-linecap:butt;stroke-linejoin:miter;stroke-miterlimit:10;stroke-dasharray:none;stroke-dashoffset:0;stroke-opacity:1;marker:none;color-rendering:auto;image-rendering:auto;shape-rendering:auto;text-rendering:auto;enable-background:accumulate"
         inkscape:connector-curvature="0" />
      <path
         d="m 186.00018,272.22668 h 6.2469 q 0.29372,0 0.33417,-0.25254 l 0.32036,-2.00008 q 0.35593,-2.22229 -2.08412,-2.22229 h -1.96555 q -2.42872,0 -2.78466,2.22229 l -0.32035,2.00008 q -0.0404,0.25254 0.25325,0.25254 z m 6.91212,7.06086 h -6.13395 q -1.99948,0 -2.97861,-1.01014 -0.97913,-1.01014 -0.68953,-2.81829 l 0.88662,-5.53555 q 0.2896,-1.80814 1.59233,-2.81828 1.30271,-1.01013 3.30219,-1.01013 h 2.42872 q 1.99945,0 2.95603,1.01013 0.96784,1.01014 0.67823,2.81828 l -0.52582,3.28295 q -0.0631,0.39396 -0.46977,0.39396 h -8.17859 q -0.2937,0 -0.33091,0.23233 l -0.2524,1.57581 q -0.36079,2.25259 2.06793,2.25259 h 5.90801 q 0.39537,0 0.33712,0.36366 l -0.14882,0.92932 q -0.0534,0.33336 -0.44875,0.33336 z"
         style="color:#000000;clip-rule:nonzero;display:inline;overflow:visible;visibility:visible;opacity:1;isolation:auto;mix-blend-mode:normal;color-interpolation:sRGB;color-interpolation-filters:linearRGB;solid-color:#000000;solid-opacity:1;fill:#1783a4;fill-opacity:1;fill-rule:nonzero;stroke:none;stroke-width:1;stroke-linecap:butt;stroke-linejoin:miter;stroke-miterlimit:10;stroke-dasharray:none;stroke-dashoffset:0;stroke-opacity:1;marker:none;color-rendering:auto;image-rendering:auto;shape-rendering:auto;text-rendering:auto;enable-background:accumulate"
         id="path7009"
         inkscape:connector-curvature="0" />
      <path
         id="path7011"
         d="m 198.93644,279.28754 h -1.29908 q -0.40666,0 -0.34841,-0.36364 l 2.79575,-17.45517 q 0.0582,-0.36365 0.4649,-0.36365 h 1.29908 q 0.4067,0 0.34845,0.36365 l -2.79575,17.45517 q -0.0582,0.36364 -0.46494,0.36364 z"
         style="color:#000000;clip-rule:nonzero;display:inline;overflow:visible;visibility:visible;opacity:1;isolation:auto;mix-blend-mode:normal;color-interpolation:sRGB;color-interpolation-filters:linearRGB;solid-color:#000000;solid-opacity:1;fill:#1783a4;fill-opacity:1;fill-rule:nonzero;stroke:none;stroke-width:1;stroke-linecap:butt;stroke-linejoin:miter;stroke-miterlimit:10;stroke-dasharray:none;stroke-dashoffset:0;stroke-opacity:1;marker:none;color-rendering:auto;image-rendering:auto;shape-rendering:auto;text-rendering:auto;enable-background:accumulate"
         inkscape:connector-curvature="0" />
      <path
         d="m 207.78907,277.63092 h 2.03335 q 2.42875,0 2.78469,-2.2223 l 0.87043,-5.43453 q 0.35595,-2.22232 -2.0728,-2.22232 h -2.03336 q -2.42871,0 -2.78466,2.22232 l -0.87043,5.43453 q -0.35594,2.2223 2.07278,2.2223 z m 1.99394,1.65662 h -2.48521 q -1.99946,0 -2.97859,-1.01014 -0.97915,-1.01013 -0.68954,-2.81828 l 0.88661,-5.53554 q 0.28961,-1.80815 1.59234,-2.81829 1.30272,-1.01014 3.30218,-1.01014 h 2.4852 q 1.99948,0 2.97863,1.01014 0.97914,1.01014 0.68954,2.81829 l -0.88662,5.53554 q -0.28961,1.80815 -1.59233,2.81828 -1.30273,1.01014 -3.30221,1.01014 z"
         style="color:#000000;clip-rule:nonzero;display:inline;overflow:visible;visibility:visible;opacity:1;isolation:auto;mix-blend-mode:normal;color-interpolation:sRGB;color-interpolation-filters:linearRGB;solid-color:#000000;solid-opacity:1;fill:#1783a4;fill-opacity:1;fill-rule:nonzero;stroke:none;stroke-width:1;stroke-linecap:butt;stroke-linejoin:miter;stroke-miterlimit:10;stroke-dasharray:none;stroke-dashoffset:0;stroke-opacity:1;marker:none;color-rendering:auto;image-rendering:auto;shape-rendering:auto;text-rendering:auto;enable-background:accumulate"
         id="path7013"
         inkscape:connector-curvature="0" />
      <path
         d="m 222.60843,277.63092 h 1.70577 q 2.4513,0 2.8121,-2.2526 l 0.86073,-5.37394 q 0.36079,-2.25261 -2.09052,-2.25261 h -1.70576 q -1.31039,0 -2.09978,0.6263 -0.78776,0.61617 -0.97058,1.75763 l -0.82029,5.12139 q -0.1812,1.13135 0.40756,1.75764 0.59039,0.61619 1.90077,0.61619 z m -3.96564,5.43455 h -1.31039 q -0.39535,0 -0.33711,-0.36366 l 2.60161,-16.24301 q 0.0582,-0.36365 0.4536,-0.36365 h 1.31039 q 0.40666,0 0.34841,0.36365 l -0.16178,1.01013 h 0.11295 q 0.94301,-1.37378 3.1684,-1.37378 h 1.72834 q 1.97688,0 2.89954,1.01014 0.92267,1.01014 0.63306,2.81829 l -0.88661,5.53554 q -0.28961,1.80815 -1.53586,2.81828 -1.24624,1.01014 -3.22313,1.01014 h -1.72833 q -2.22538,0 -2.72833,-1.37379 h -0.11295 l -0.76689,4.78806 q -0.0582,0.36366 -0.46492,0.36366 z"
         style="color:#000000;clip-rule:nonzero;display:inline;overflow:visible;visibility:visible;opacity:1;isolation:auto;mix-blend-mode:normal;color-interpolation:sRGB;color-interpolation-filters:linearRGB;solid-color:#000000;solid-opacity:1;fill:#1783a4;fill-opacity:1;fill-rule:nonzero;stroke:none;stroke-width:1;stroke-linecap:butt;stroke-linejoin:miter;stroke-miterlimit:10;stroke-dasharray:none;stroke-dashoffset:0;stroke-opacity:1;marker:none;color-rendering:auto;image-rendering:auto;shape-rendering:auto;text-rendering:auto;enable-background:accumulate"
         id="path7015"
         inkscape:connector-curvature="0" />
      <path
         id="path7017"
         d="m 233.47513,279.28754 h -1.31038 q -0.39538,0 -0.33714,-0.36364 l 1.99651,-12.4651 q 0.0583,-0.36365 0.45363,-0.36365 h 1.31037 q 0.40668,0 0.34843,0.36365 l -0.16179,1.01013 h 0.11297 q 1.02208,-1.37378 3.28136,-1.37378 h 1.07315 q 2.54169,0 3.24295,1.75764 0.59908,-0.8485 1.66594,-1.30308 1.0782,-0.45456 2.17394,-0.45456 h 1.01669 q 1.96557,0 2.89953,1.01014 0.93395,1.01014 0.64434,2.81829 l -1.44156,9.00032 q -0.0583,0.36364 -0.46491,0.36364 h -1.29909 q -0.40667,0 -0.34843,-0.36364 l 1.42862,-8.91952 q 0.3608,-2.25261 -2.06794,-2.25261 h -0.94888 q -1.2991,0 -2.11754,0.6667 -0.81684,0.65658 -0.99805,1.78794 l -1.39625,8.71749 q -0.0582,0.36364 -0.46493,0.36364 h -1.29906 q -0.40667,0 -0.34843,-0.36364 l 1.42862,-8.91952 q 0.36079,-2.25261 -2.06794,-2.25261 H 238.418 q -1.31039,0 -2.09978,0.6263 -0.78777,0.61617 -0.97059,1.75763 l -1.40758,8.7882 q -0.0583,0.36364 -0.46492,0.36364 z"
         style="color:#000000;clip-rule:nonzero;display:inline;overflow:visible;visibility:visible;opacity:1;isolation:auto;mix-blend-mode:normal;color-interpolation:sRGB;color-interpolation-filters:linearRGB;solid-color:#000000;solid-opacity:1;fill:#1783a4;fill-opacity:1;fill-rule:nonzero;stroke:none;stroke-width:1;stroke-linecap:butt;stroke-linejoin:miter;stroke-miterlimit:10;stroke-dasharray:none;stroke-dashoffset:0;stroke-opacity:1;marker:none;color-rendering:auto;image-rendering:auto;shape-rendering:auto;text-rendering:auto;enable-background:accumulate"
         inkscape:connector-curvature="0" />
      <path
         d="m 257.06837,272.22668 h 6.24692 q 0.29369,0 0.33414,-0.25254 l 0.32034,-2.00008 q 0.35595,-2.22229 -2.08407,-2.22229 h -1.96558 q -2.42871,0 -2.78465,2.22229 l -0.32035,2.00008 q -0.0404,0.25254 0.25325,0.25254 z m 6.9121,7.06086 h -6.13391 q -1.99948,0 -2.97862,-1.01014 -0.97915,-1.01014 -0.68954,-2.81829 l 0.88661,-5.53555 q 0.28962,-1.80814 1.59234,-2.81828 1.30272,-1.01013 3.30219,-1.01013 h 2.42872 q 1.99945,0 2.95601,1.01013 0.96784,1.01014 0.67824,2.81828 l -0.52582,3.28295 q -0.0631,0.39396 -0.46978,0.39396 h -8.17858 q -0.2937,0 -0.33091,0.23233 l -0.25239,1.57581 q -0.36079,2.25259 2.06792,2.25259 h 5.90801 q 0.39538,0 0.33714,0.36366 l -0.14882,0.92932 q -0.0534,0.33336 -0.44878,0.33336 z"
         style="color:#000000;clip-rule:nonzero;display:inline;overflow:visible;visibility:visible;opacity:1;isolation:auto;mix-blend-mode:normal;color-interpolation:sRGB;color-interpolation-filters:linearRGB;solid-color:#000000;solid-opacity:1;fill:#1783a4;fill-opacity:1;fill-rule:nonzero;stroke:none;stroke-width:1;stroke-linecap:butt;stroke-linejoin:miter;stroke-miterlimit:10;stroke-dasharray:none;stroke-dashoffset:0;stroke-opacity:1;marker:none;color-rendering:auto;image-rendering:auto;shape-rendering:auto;text-rendering:auto;enable-background:accumulate"
         id="path7019"
         inkscape:connector-curvature="0" />
      <path
         id="path7021"
         d="m 269.40784,279.28754 h -1.3104 q -0.39537,0 -0.33712,-0.36364 l 1.9965,-12.4651 q 0.0582,-0.36365 0.45361,-0.36365 h 1.31041 q 0.40665,0 0.34841,0.36365 l -0.16179,1.01013 h 0.11297 q 0.943,-1.37378 3.16838,-1.37378 h 1.61539 q 1.96557,0 2.89953,1.01014 0.94527,1.01014 0.65566,2.81829 l -1.44156,9.00032 q -0.0582,0.36364 -0.46493,0.36364 h -1.29908 q -0.40666,0 -0.34841,-0.36364 l 1.42861,-8.91952 q 0.3608,-2.25261 -2.06794,-2.25261 h -1.61538 q -1.31038,0 -2.09978,0.6263 -0.78777,0.61617 -0.97059,1.75763 l -1.40759,8.7882 q -0.0582,0.36364 -0.4649,0.36364 z"
         style="color:#000000;clip-rule:nonzero;display:inline;overflow:visible;visibility:visible;opacity:1;isolation:auto;mix-blend-mode:normal;color-interpolation:sRGB;color-interpolation-filters:linearRGB;solid-color:#000000;solid-opacity:1;fill:#1783a4;fill-opacity:1;fill-rule:nonzero;stroke:none;stroke-width:1;stroke-linecap:butt;stroke-linejoin:miter;stroke-miterlimit:10;stroke-dasharray:none;stroke-dashoffset:0;stroke-opacity:1;marker:none;color-rendering:auto;image-rendering:auto;shape-rendering:auto;text-rendering:auto;enable-background:accumulate"
         inkscape:connector-curvature="0" />
      <path
         id="path7023"
         d="m 285.07799,267.75177 h -1.59281 q -0.39536,0 -0.34197,-0.33335 l 0.15369,-0.95962 q 0.0582,-0.36365 0.45361,-0.36365 h 1.59282 q 0.29369,0 0.33089,-0.23233 l 0.35595,-2.22229 q 0.0582,-0.36367 0.46493,-0.36367 h 1.29906 q 0.3728,0 0.31455,0.36367 l -0.35593,2.22229 q -0.0373,0.23233 0.27907,0.23233 h 3.07263 q 0.42924,0 0.371,0.36365 l -0.1537,0.95962 q -0.0534,0.33335 -0.48265,0.33335 h -3.07261 q -0.3163,0 -0.35351,0.23233 l -1.19401,7.45483 q -0.35109,2.19199 2.19058,2.19199 h 1.12964 q 0.44057,0 0.38232,0.36365 l -0.1537,0.95962 q -0.0534,0.33335 -0.49396,0.33335 h -1.38944 q -1.98817,0 -3.01574,-0.98992 -1.02595,-1.00005 -0.73958,-2.78798 l 1.20534,-7.52554 q 0.0373,-0.23233 -0.25647,-0.23233 z"
         style="color:#000000;clip-rule:nonzero;display:inline;overflow:visible;visibility:visible;opacity:1;isolation:auto;mix-blend-mode:normal;color-interpolation:sRGB;color-interpolation-filters:linearRGB;solid-color:#000000;solid-opacity:1;fill:#1783a4;fill-opacity:1;fill-rule:nonzero;stroke:none;stroke-width:1;stroke-linecap:butt;stroke-linejoin:miter;stroke-miterlimit:10;stroke-dasharray:none;stroke-dashoffset:0;stroke-opacity:1;marker:none;color-rendering:auto;image-rendering:auto;shape-rendering:auto;text-rendering:auto;enable-background:accumulate"
         inkscape:connector-curvature="0" />
    </g>
  </g>
</svg>
