<?xml version="1.0" encoding="UTF-8" standalone="no"?>
<svg
   xmlns:osb="http://www.openswatchbook.org/uri/2009/osb"
   xmlns:dc="http://purl.org/dc/elements/1.1/"
   xmlns:cc="http://creativecommons.org/ns#"
   xmlns:rdf="http://www.w3.org/1999/02/22-rdf-syntax-ns#"
   xmlns:svg="http://www.w3.org/2000/svg"
   xmlns="http://www.w3.org/2000/svg"
   xmlns:xlink="http://www.w3.org/1999/xlink"
   xmlns:sodipodi="http://sodipodi.sourceforge.net/DTD/sodipodi-0.dtd"
   xmlns:inkscape="http://www.inkscape.org/namespaces/inkscape"
   version="1.1"
   viewBox="0.0 0.0 960.0 540.0"
   fill="none"
   stroke="none"
   stroke-linecap="square"
   stroke-miterlimit="10"
   id="svg4523"
   sodipodi:docname="tofraweb.svg"
   inkscape:version="0.92.1 r15371">
  <metadata
     id="metadata4529">
    <rdf:RDF>
      <cc:Work
         rdf:about="">
        <dc:format>image/svg+xml</dc:format>
        <dc:type
           rdf:resource="http://purl.org/dc/dcmitype/StillImage" />
      </cc:Work>
    </rdf:RDF>
  </metadata>
  <defs
     id="defs4527">
    <linearGradient
       id="linearGradient6705"
       osb:paint="solid">
      <stop
         style="stop-color:#373737;stop-opacity:1;"
         offset="0"
         id="stop6703" />
    </linearGradient>
    <linearGradient
       inkscape:collect="always"
       id="linearGradient6667">
      <stop
         style="stop-color:#09afdf;stop-opacity:1;"
         offset="0"
         id="stop6663" />
      <stop
         style="stop-color:#09afdf;stop-opacity:0;"
         offset="1"
         id="stop6665" />
    </linearGradient>
    <linearGradient
       inkscape:collect="always"
       id="linearGradient6627">
      <stop
         style="stop-color:#373737;stop-opacity:1;"
         offset="0"
         id="stop6623" />
      <stop
         style="stop-color:#373737;stop-opacity:0;"
         offset="1"
         id="stop6625" />
    </linearGradient>
    <linearGradient
       inkscape:collect="always"
       xlink:href="#linearGradient6627"
       id="linearGradient6631"
       x1="0"
       y1="270"
       x2="960"
       y2="270"
       gradientUnits="userSpaceOnUse" />
    <linearGradient
       inkscape:collect="always"
       xlink:href="#linearGradient6667"
       id="linearGradient6669"
       x1="251.39583"
       y1="123.88435"
       x2="669.90465"
       y2="123.88435"
       gradientUnits="userSpaceOnUse"
       gradientTransform="translate(14.110076,0.84175507)" />
    <filter
       inkscape:collect="always"
       style="color-interpolation-filters:sRGB"
       id="filter6829"
       x="-0.0012551764"
       width="1.0025104"
       y="-0.026917211"
       height="1.0538344">
      <feGaussianBlur
         inkscape:collect="always"
         stdDeviation="0.21913958"
         id="feGaussianBlur6831" />
    </filter>
    <linearGradient
       inkscape:collect="always"
       xlink:href="#linearGradient6627"
       id="linearGradient6865"
       gradientUnits="userSpaceOnUse"
       x1="0"
       y1="270"
       x2="960"
       y2="270" />
    <linearGradient
       inkscape:collect="always"
       xlink:href="#linearGradient6627"
       id="linearGradient6867"
       gradientUnits="userSpaceOnUse"
       x1="0"
       y1="270"
       x2="960"
       y2="270"
       gradientTransform="translate(-25.030329,2.0024263)" />
    <linearGradient
       inkscape:collect="always"
       xlink:href="#linearGradient6627"
       id="linearGradient6869"
       gradientUnits="userSpaceOnUse"
       x1="0"
       y1="270"
       x2="960"
       y2="270"
       gradientTransform="translate(-25.030329,2.0024263)" />
    <linearGradient
       inkscape:collect="always"
       xlink:href="#linearGradient6627"
       id="linearGradient6871"
       gradientUnits="userSpaceOnUse"
       x1="0"
       y1="270"
       x2="960"
       y2="270" />
    <linearGradient
       inkscape:collect="always"
       xlink:href="#linearGradient6627"
       id="linearGradient6873"
       gradientUnits="userSpaceOnUse"
       x1="0"
       y1="270"
       x2="960"
       y2="270"
       gradientTransform="translate(-25.030329,2.0024263)" />
    <linearGradient
       inkscape:collect="always"
       xlink:href="#linearGradient6667"
       id="linearGradient6908"
       gradientUnits="userSpaceOnUse"
       gradientTransform="translate(14.110076,0.84175507)"
       x1="251.39583"
       y1="123.88435"
       x2="669.90465"
       y2="123.88435" />
  </defs>
  <sodipodi:namedview
     pagecolor="#ffffff"
     bordercolor="#666666"
     borderopacity="1"
     objecttolerance="10"
     gridtolerance="10"
     guidetolerance="10"
     inkscape:pageopacity="0"
     inkscape:pageshadow="2"
     inkscape:window-width="1920"
     inkscape:window-height="1001"
     id="namedview4525"
     showgrid="false"
     inkscape:zoom="1.9975767"
     inkscape:cx="422.34607"
     inkscape:cy="286.58864"
     inkscape:window-x="-9"
     inkscape:window-y="-9"
     inkscape:window-maximized="1"
     inkscape:current-layer="svg4523" />
  <clipPath
     id="g24982ddbf3_0_0.0">
    <path
       d="m0 0l960.0 0l0 540.0l-960.0 0l0 -540.0z"
       clip-rule="nonzero"
       id="path4506" />
  </clipPath>
  <g
     clip-path="url(#g24982ddbf3_0_0.0)"
     id="g4521"
     style="stroke:url(#linearGradient6631);stroke-width:0.5;stroke-miterlimit:10;stroke-dasharray:none"
     transform="translate(-26.031542,-1.0012131)">
    <path
       d="M 28.724848,78.1706 H 923.276 V 293.66666 H 28.724848 Z"
       id="path4511"
       inkscape:connector-curvature="0"
       style="display:none;fill:#000000;fill-opacity:0;fill-rule:evenodd;stroke:url(#linearGradient6865);stroke-width:0.5;stroke-miterlimit:10;stroke-dasharray:none" />
    <path
       d="m 32.72441,237.13649 h 894.55115 v 83.2126 H 32.72441 Z"
       id="path4517"
       inkscape:connector-curvature="0"
       style="display:none;fill:#000000;fill-opacity:0;fill-rule:evenodd;stroke:url(#linearGradient6871);stroke-width:0.5;stroke-miterlimit:10;stroke-dasharray:none" />
  </g>
  <g
     id="g6918"
     inkscape:export-xdpi="261.79611"
     inkscape:export-ydpi="261.79611">
    <path
       style="fill:#09afdf;fill-rule:nonzero;stroke:url(#linearGradient6867);stroke-width:0.30000001;stroke-miterlimit:10;stroke-dasharray:none"
       inkscape:connector-curvature="0"
       id="path4513"
       d="m 182.09964,192.67223 h -5.875 q -1.76563,0 -2.4375,-0.57813 -0.65625,-0.59375 -0.65625,-2.35937 v -10.15625 q 0,-3.07813 3.09375,-3.07813 h 5.875 q 1.60937,0 1.60937,-1.625 v -13.95312 q 0,-3.09375 3.23438,-3.09375 h 12.35937 q 3.07813,0 3.07813,3.09375 v 13.95312 q 0,1.625 1.76562,1.625 h 11.46875 q 3.09375,0 3.09375,3.07813 v 10.15625 q 0,1.60937 -0.67187,2.28125 -0.65625,0.65625 -2.42188,0.65625 h -11.46875 q -1.76562,0 -1.76562,1.60937 v 32.48438 q 0,4.5625 2.0625,6.54687 2.0625,1.98438 6.76562,1.98438 h 5.875 q 3.09375,0 3.09375,3.09375 v 10.14062 q 0,1.60938 -0.67187,2.28125 -0.65625,0.65625 -2.42188,0.65625 h -8.96875 q -11.60937,0 -18.01562,-6.17187 -6.39063,-6.17188 -6.39063,-17.64063 v -33.375 q 0,-1.60937 -1.60937,-1.60937 z m 86.01968,58.79687 h -13.07815 q -11.625,0 -17.95313,-6.17187 -6.31248,-6.17188 -6.31248,-17.79688 v -27.04687 q 0,-11.60938 6.31248,-17.78125 6.32813,-6.17188 17.95313,-6.17188 h 13.07815 q 11.46875,0 17.85938,6.25 6.39062,6.25 6.39062,17.70313 v 27.04687 q 0,11.46875 -6.39062,17.71875 -6.39063,6.25 -17.85938,6.25 z m -10.2969,-16.01562 h 7.50003 q 4.70312,0 6.6875,-1.90625 1.98437,-1.92188 1.98437,-6.625 v -25.875 q 0,-4.70313 -1.98437,-6.60938 -1.98438,-1.92187 -6.6875,-1.92187 h -7.50003 q -4.70313,0 -6.60938,1.92187 -1.90625,1.90625 -1.90625,6.60938 v 25.875 q 0,4.70312 1.90625,6.625 1.90625,1.90625 6.60938,1.90625 z m 76.27304,-58.95313 h 11.76562 q 1.75,0 2.40625,0.67188 0.67188,0.65625 0.67188,2.26562 v 10.14063 q 0,3.09375 -3.07813,3.09375 h -11.76562 q -1.625,0 -1.625,1.60937 v 54.09375 q 0,3.09375 -3.23438,3.09375 h -12.34375 q -3.07812,0 -3.07812,-3.09375 V 194.2816 q 0,-1.60937 -1.76563,-1.60937 h -6.76562 q -3.09375,0 -3.09375,-3.09375 v -10.14063 q 0,-1.76562 0.65625,-2.34375 0.67187,-0.59375 2.4375,-0.59375 h 6.76562 q 1.76563,0 1.76563,-1.625 v -2.78125 q 0,-11.625 6.09375,-17.79687 6.09375,-6.17188 17.71875,-6.17188 h 8.375 q 1.76562,0 2.34375,0.67188 0.59375,0.65625 0.59375,2.26562 v 10.14063 q 0,3.09375 -2.9375,3.09375 h -5.4375 q -4.70313,0 -6.40625,1.98437 -1.6875,1.98438 -1.6875,6.6875 v 1.90625 q 0,1.625 1.625,1.625 z m 40.30694,74.96875 h -12.5 q -3.09375,0 -3.09375,-3.09375 v -68.79687 q 0,-3.07813 3.09375,-3.07813 h 12.5 q 3.07813,0 3.07813,3.07813 v 5 h 0.59375 q 1.60937,-3.96875 5.71875,-6.01563 4.125,-2.0625 8.6875,-2.0625 h 5.29687 q 2.9375,0 2.9375,3.07813 v 10.15625 q 0,1.76562 -0.67187,2.42187 -0.65625,0.65625 -2.26563,0.51563 h -10.15625 q -10.14062,0 -10.14062,11.46875 v 44.23437 q 0,3.09375 -3.07813,3.09375 z m 61.9018,0 h -3.51563 q -11.625,0 -17.95312,-6.17187 -6.3125,-6.17188 -6.3125,-17.79688 v -27.04687 q 0,-11.60938 6.3125,-17.78125 6.32812,-6.17188 17.95312,-6.17188 h 33.95313 q 3.23437,0 3.23437,3.07813 v 68.79687 q 0,3.09375 -3.23437,3.09375 h -12.34375 q -3.09375,0 -3.09375,-3.09375 v -4.84375 h -0.59375 q -1.60938,3.96875 -5.73438,5.95313 -4.10937,1.98437 -8.67187,1.98437 z m 15,-27.34375 V 194.2816 q 0,-1.60937 -1.76563,-1.60937 h -13.8125 q -4.70312,0 -6.625,1.98437 -1.90625,1.98438 -1.90625,6.6875 v 25.28125 q 0,4.70313 1.90625,6.6875 1.92188,1.98438 6.625,1.98438 h 5.4375 q 10.14063,0 10.14063,-11.17188 z" />
    <path
       style="fill:#1da2c8;fill-rule:nonzero;stroke:url(#linearGradient6869);stroke-width:0.30000001;stroke-miterlimit:10;stroke-dasharray:none"
       inkscape:connector-curvature="0"
       id="path4515"
       d="m 515.95967,251.4691 h -16.76563 q -2.79687,0 -3.53125,-3.09375 l -14.68746,-68.79688 q -0.59375,-3.07812 2.20312,-3.07812 h 14.10934 q 3.23438,0 3.53125,3.07812 l 6.60938,50.28125 h 1.17187 l 10.4375,-50.28125 q 0.4375,-3.07812 3.39063,-3.07812 h 12.9375 q 3.07812,0 3.67187,3.07812 l 10.14063,50.28125 h 1.17187 l 6.76563,-50.28125 q 0.4375,-3.07812 3.53125,-3.07812 h 14.10937 q 2.9375,0 2.20313,3.07812 l -14.70313,68.79688 q -0.57812,3.09375 -3.53125,3.09375 h -16.75 q -2.9375,0 -3.53125,-3.09375 l -8.96875,-49.67188 h -1.17187 l -8.82813,49.67188 q -0.4375,3.09375 -3.51562,3.09375 z m 127.35406,0 h -32.48437 q -11.625,0 -17.95313,-6.17188 -6.3125,-6.17187 -6.3125,-17.79687 v -27.04688 q 0,-11.60937 6.3125,-17.78125 6.32813,-6.17187 17.95313,-6.17187 h 11.60937 q 11.60938,0 17.92188,6.17187 6.32812,6.17188 6.32812,17.78125 v 18.67188 q 0,3.09375 -3.07812,3.09375 h -36.90625 q -1.76563,0 -1.76563,1.60937 v 3.23438 q 0,4.5625 1.98438,6.54687 1.98437,1.98438 6.6875,1.98438 h 29.70312 q 3.07813,0 3.07813,3.23437 v 9.70313 q 0,1.60937 -0.65625,2.28125 -0.65625,0.65625 -2.42188,0.65625 z m -36.60937,-41.75 h 20 q 1.60937,0 1.60937,-1.60938 v -7.0625 q 0,-4.70312 -1.90625,-6.60937 -1.90625,-1.92188 -6.60937,-1.92188 h -6.1875 q -4.70313,0 -6.60938,1.92188 -1.90625,1.90625 -1.90625,6.60937 v 7.0625 q 0,1.60938 1.60938,1.60938 z m 74.07318,25.57812 h 14.98437 q 4.70313,0 6.6875,-1.98437 1.98438,-1.98438 1.98438,-6.6875 v -25.57813 q 0,-4.70312 -1.98438,-6.6875 -1.98437,-1.98437 -6.6875,-1.98437 h -6.46875 q -10.14062,0 -10.14062,11.17187 v 30.14063 q 0,1.60937 1.625,1.60937 z m -20.29688,13.07813 V 151.2191 q 0,-3.09375 3.09375,-3.09375 h 12.5 q 3.07813,0 3.07813,3.09375 v 33.07812 h 0.59375 q 1.60937,-3.96875 5.71875,-6.03125 4.125,-2.0625 8.6875,-2.0625 h 4.70312 q 11.60938,0 17.92188,6.17188 6.32812,6.17187 6.32812,17.79687 v 27.32813 q 0,11.625 -6.32812,17.79687 -6.3125,6.17188 -17.92188,6.17188 h -35.28125 q -3.09375,0 -3.09375,-3.09375 z" />
    <path
       style="fill:#1da2c8;fill-rule:nonzero;stroke:url(#linearGradient6873);stroke-width:0.30000001;stroke-miterlimit:10;stroke-dasharray:none"
       inkscape:connector-curvature="0"
       id="path4519"
       d="m 238.20533,309.57891 h -3.90625 q -0.89063,0 -1.09375,-0.89063 l -8.18749,-30.85937 q -0.1875,-0.89063 0.64063,-0.89063 h 3.26562 q 0.82813,0 1.01563,0.89063 l 6.21873,26.125 h 0.375 l 6.59375,-26.125 q 0.1875,-0.89063 1.03125,-0.89063 h 2.9375 q 0.89063,0 1.15625,0.89063 l 6.39063,26.125 h 0.39062 l 6.26563,-26.125 q 0.20312,-0.89063 1.03125,-0.89063 h 3.26562 q 0.82813,0 0.64063,0.89063 l -8.1875,30.85937 q -0.20313,0.89063 -1.09375,0.89063 h -3.96875 q -0.82813,0 -1.03125,-0.89063 l -6.20313,-25.48437 h -0.3125 l -6.15625,25.48437 q -0.1875,0.89063 -1.07812,0.89063 z m 56.18518,0 h -13.5625 q -4.42188,0 -6.95313,-2.48438 -2.51562,-2.5 -2.51562,-6.98437 v -13.70313 q 0,-4.46875 2.51562,-6.96875 2.53125,-2.5 6.95313,-2.5 h 5.375 q 4.42187,0 6.90625,2.5 2.5,2.5 2.5,6.96875 v 8.125 q 0,0.96875 -0.89063,0.96875 h -18.10937 q -0.64063,0 -0.64063,0.57813 v 3.90625 q 0,5.5625 5.375,5.5625 h 13.04688 q 0.90625,0 0.90625,0.89062 v 2.3125 q 0,0.82813 -0.90625,0.82813 z m -17.78125,-17.46875 h 13.8125 q 0.64062,0 0.64062,-0.64063 v -4.9375 q 0,-5.5 -5.375,-5.5 h -4.34375 q -5.375,0 -5.375,5.5 v 4.9375 q 0,0.64063 0.64063,0.64063 z m 32.19107,13.375 h 9.07813 q 5.4375,0 5.4375,-5.5625 v -13.70313 q 0,-5.5625 -5.4375,-5.5625 h -3.76563 q -2.89062,0 -4.42187,1.53125 -1.53125,1.53125 -1.53125,4.28125 v 18.4375 q 0,0.57813 0.64062,0.57813 z m -5.3125,3.20312 v -43.20312 q 0,-0.89063 0.89063,-0.89063 h 2.875 q 0.90625,0 0.90625,0.89063 v 14.46875 h 0.25 q 1.59375,-3.40625 6.53125,-3.40625 h 3.57812 q 4.35938,0 6.875,2.5 2.53125,2.5 2.53125,6.92187 v 14.14063 q 0,4.48437 -2.53125,6.98437 -2.51562,2.48438 -6.875,2.48438 h -14.14062 q -0.89063,0 -0.89063,-0.89063 z m 61.23966,0.89063 h -3.78125 q -4.34375,0 -6.78125,-2.48438 -2.42188,-2.5 -2.42188,-6.98437 v -13.70313 q 0,-4.46875 2.42188,-6.96875 2.4375,-2.5 6.78125,-2.5 h 3.78125 q 5,0 6.59375,3.39063 h 0.25 v -14.84375 q 0,-0.89063 0.84375,-0.89063 h 2.9375 q 0.82812,0 0.82812,0.89063 v 43.20312 q 0,0.89063 -0.82812,0.89063 h -2.9375 q -0.84375,0 -0.84375,-0.89063 v -2.5 h -0.25 q -1.59375,3.39063 -6.59375,3.39063 z m 6.84375,-9.98438 v -12.67187 q 0,-2.8125 -1.53125,-4.34375 -1.53125,-1.54688 -4.42188,-1.54688 h -3.89062 q -5.3125,0 -5.3125,5.57813 v 13.3125 q 0,5.5625 5.3125,5.5625 h 3.89062 q 2.89063,0 4.42188,-1.53125 1.53125,-1.54688 1.53125,-4.35938 z m 35.84305,9.98438 h -13.5625 q -4.42188,0 -6.95313,-2.48438 -2.51562,-2.5 -2.51562,-6.98437 v -13.70313 q 0,-4.46875 2.51562,-6.96875 2.53125,-2.5 6.95313,-2.5 h 5.375 q 4.42187,0 6.90625,2.5 2.5,2.5 2.5,6.96875 v 8.125 q 0,0.96875 -0.89063,0.96875 h -18.10937 q -0.64063,0 -0.64063,0.57813 v 3.90625 q 0,5.5625 5.375,5.5625 h 13.04688 q 0.90625,0 0.90625,0.89062 v 2.3125 q 0,0.82813 -0.90625,0.82813 z m -17.78125,-17.46875 h 13.8125 q 0.64062,0 0.64062,-0.64063 v -4.9375 q 0,-5.5 -5.375,-5.5 h -4.34375 q -5.375,0 -5.375,5.5 v 4.9375 q 0,0.64063 0.64063,0.64063 z m 24.3786,-15.17188 h 3 q 0.84375,0 1.03125,0.89063 l 7.67187,27.07812 h 0.32813 l 7.60937,-27.07812 q 0.26563,-0.89063 1.09375,-0.89063 h 3 q 0.90625,0 0.64063,0.89063 l -9.20313,30.79687 q -0.20312,0.95313 -1.15625,0.95313 h -4.35937 q -0.89063,0 -1.14063,-0.95313 l -9.15625,-30.79687 q -0.25,-0.89063 0.64063,-0.89063 z m 52.47455,32.64063 h -13.5625 q -4.42188,0 -6.95313,-2.48438 -2.51562,-2.5 -2.51562,-6.98437 v -13.70313 q 0,-4.46875 2.51562,-6.96875 2.53125,-2.5 6.95313,-2.5 h 5.375 q 4.42187,0 6.90625,2.5 2.5,2.5 2.5,6.96875 v 8.125 q 0,0.96875 -0.89063,0.96875 h -18.10937 q -0.64063,0 -0.64063,0.57813 v 3.90625 q 0,5.5625 5.375,5.5625 h 13.04688 q 0.90625,0 0.90625,0.89062 v 2.3125 q 0,0.82813 -0.90625,0.82813 z m -17.78125,-17.46875 h 13.8125 q 0.64062,0 0.64062,-0.64063 v -4.9375 q 0,-5.5 -5.375,-5.5 h -4.34375 q -5.375,0 -5.375,5.5 v 4.9375 q 0,0.64063 0.64063,0.64063 z m 30.97235,17.46875 h -2.89063 q -0.89062,0 -0.89062,-0.89063 v -43.20312 q 0,-0.89063 0.89062,-0.89063 h 2.89063 q 0.89062,0 0.89062,0.89063 v 43.20312 q 0,0.89063 -0.89062,0.89063 z m 24.37832,0 h -5.5 q -4.42187,0 -6.95312,-2.48438 -2.51563,-2.5 -2.51563,-6.98437 v -13.70313 q 0,-4.46875 2.51563,-6.96875 2.53125,-2.5 6.95312,-2.5 h 5.5 q 4.42188,0 6.9375,2.5 2.53125,2.5 2.53125,6.96875 v 13.70313 q 0,4.48437 -2.53125,6.98437 -2.51562,2.48438 -6.9375,2.48438 z m -4.98437,-4.09375 h 4.46875 q 5.375,0 5.375,-5.5 v -13.45313 q 0,-5.5 -5.375,-5.5 h -4.46875 q -5.375,0 -5.375,5.5 v 13.45313 q 0,5.5 5.375,5.5 z m 26.42181,13.4375 h -2.875 q -0.89062,0 -0.89062,-0.89063 v -40.20312 q 0,-0.89063 0.89062,-0.89063 h 2.875 q 0.90625,0 0.90625,0.89063 v 2.5 h 0.25 q 1.59375,-3.39063 6.53125,-3.39063 h 3.84375 q 4.34375,0 6.73438,2.5 2.40625,2.5 2.40625,6.96875 v 13.70313 q 0,4.48437 -2.40625,6.98437 -2.39063,2.48438 -6.73438,2.48438 h -3.84375 q -4.9375,0 -6.53125,-3.39063 h -0.25 v 11.84375 q 0,0.89063 -0.90625,0.89063 z m 6.85938,-13.4375 h 3.76562 q 5.4375,0 5.4375,-5.5625 v -13.3125 q 0,-5.57813 -5.4375,-5.57813 h -3.76562 q -2.89063,0 -4.42188,1.54688 -1.53125,1.53125 -1.53125,4.34375 v 12.67187 q 0,2.8125 1.53125,4.35938 1.53125,1.53125 4.42188,1.53125 z m 25.78064,4.09375 h -2.875 q -0.89063,0 -0.89063,-0.89063 v -30.85937 q 0,-0.89063 0.89063,-0.89063 h 2.875 q 0.90625,0 0.90625,0.89063 v 2.5 h 0.25 q 1.79687,-3.39063 6.78125,-3.39063 h 2.375 q 5.625,0 7.79687,4.35938 1.03125,-2.125 3.23438,-3.23438 2.21875,-1.125 4.64062,-1.125 h 2.25 q 4.34375,0 6.76563,2.5 2.4375,2.5 2.4375,6.96875 v 22.28125 q 0,0.89063 -0.89063,0.89063 h -2.875 q -0.90625,0 -0.90625,-0.89063 v -22.07812 q 0,-5.57813 -5.375,-5.57813 h -2.10937 q -2.875,0 -4.45313,1.64063 -1.5625,1.625 -1.5625,4.4375 v 21.57812 q 0,0.89063 -0.89062,0.89063 h -2.875 q -0.90625,0 -0.90625,-0.89063 v -22.07812 q 0,-5.57813 -5.375,-5.57813 h -2.35938 q -2.89062,0 -4.42187,1.54688 -1.53125,1.53125 -1.53125,4.34375 v 21.76562 q 0,0.89063 -0.90625,0.89063 z m 68.3529,0 h -13.5625 q -4.42187,0 -6.95312,-2.48438 -2.51563,-2.5 -2.51563,-6.98437 v -13.70313 q 0,-4.46875 2.51563,-6.96875 2.53125,-2.5 6.95312,-2.5 h 5.375 q 4.42188,0 6.90625,2.5 2.5,2.5 2.5,6.96875 v 8.125 q 0,0.96875 -0.89062,0.96875 h -18.10938 q -0.64062,0 -0.64062,0.57813 v 3.90625 q 0,5.5625 5.375,5.5625 h 13.04687 q 0.90625,0 0.90625,0.89062 v 2.3125 q 0,0.82813 -0.90625,0.82813 z m -17.78125,-17.46875 h 13.8125 q 0.64063,0 0.64063,-0.64063 v -4.9375 q 0,-5.5 -5.375,-5.5 h -4.34375 q -5.375,0 -5.375,5.5 v 4.9375 q 0,0.64063 0.64062,0.64063 z m 30.64417,17.46875 h -2.875 q -0.89063,0 -0.89063,-0.89063 v -30.85937 q 0,-0.89063 0.89063,-0.89063 h 2.875 q 0.90625,0 0.90625,0.89063 v 2.5 h 0.25 q 1.59375,-3.39063 6.53125,-3.39063 h 3.57812 q 4.35938,0 6.78125,2.5 2.4375,2.5 2.4375,6.96875 v 22.28125 q 0,0.89063 -0.89062,0.89063 h -2.89063 q -0.89062,0 -0.89062,-0.89063 v -22.07812 q 0,-5.57813 -5.375,-5.57813 h -3.57813 q -2.89062,0 -4.42187,1.54688 -1.53125,1.53125 -1.53125,4.34375 v 21.76562 q 0,0.89063 -0.90625,0.89063 z m 30.20544,-28.54688 h -3.51562 q -0.89063,0 -0.89063,-0.82812 v -2.375 q 0,-0.89063 0.89063,-0.89063 h 3.51562 q 0.64063,0 0.64063,-0.57812 v -5.5 q 0,-0.89063 0.90625,-0.89063 h 2.875 q 0.82812,0 0.82812,0.89063 v 5.5 q 0,0.57812 0.70313,0.57812 h 6.79687 q 0.95313,0 0.95313,0.89063 v 2.375 q 0,0.82812 -0.95313,0.82812 h -6.79687 q -0.70313,0 -0.70313,0.57813 v 18.4375 q 0,5.4375 5.64063,5.4375 h 2.5 q 0.95312,0 0.95312,0.89062 v 2.375 q 0,0.82813 -0.95312,0.82813 h -3.07813 q -4.42187,0 -7.04687,-2.45313 -2.625,-2.46875 -2.625,-6.89062 v -18.625 q 0,-0.57813 -0.64063,-0.57813 z" />
    <path
       sodipodi:open="true"
       transform="matrix(0.99995603,-0.00937726,0.05920596,0.99824579,3.0012131,3.0036394)"
       d="m 684.01472,124.72475 a 209.25441,9.7005444 0 0 1 -207.60306,9.70024 209.25441,9.7005444 0 0 1 -210.87969,-9.54714 209.25441,9.7005444 0 0 1 204.27473,-9.85093"
       sodipodi:end="4.6887141"
       sodipodi:start="0"
       sodipodi:ry="9.7005444"
       sodipodi:rx="209.25441"
       sodipodi:cy="124.72475"
       sodipodi:cx="474.76031"
       sodipodi:type="arc"
       id="path6018"
       style="fill:url(#linearGradient6908);fill-opacity:1;stroke:#373737;stroke-width:0;stroke-linejoin:round;stroke-miterlimit:10;stroke-dasharray:none;stroke-opacity:1;paint-order:fill markers stroke;filter:url(#filter6829)" />
  </g>
</svg>
